<?xml version="1.0" standalone="no"?>
<!DOCTYPE svg PUBLIC "-//W3C//DTD SVG 20010904//EN"
 "http://www.w3.org/TR/2001/REC-SVG-20010904/DTD/svg10.dtd">
<svg version="1.0" xmlns="http://www.w3.org/2000/svg"
 width="300.000000pt" height="300.000000pt" viewBox="0 0 300.000000 300.000000"
 preserveAspectRatio="xMidYMid meet">
<metadata>
Created by potrace 1.14, written by Peter Selinger 2001-2017
</metadata>
<g transform="translate(0.000000,300.000000) scale(0.100000,-0.100000)"
fill="#000000" stroke="none">
<path d="M0 1624 l0 -1377 25 38 c14 20 35 67 47 104 32 100 46 110 93 67 34
-32 99 -157 85 -166 -5 -3 -17 -33 -25 -65 -17 -65 -32 -88 -51 -81 -8 3 -14
-4 -16 -17 -2 -15 -14 -26 -36 -33 -41 -13 -63 -33 -29 -27 17 3 26 -1 31 -12
5 -15 1 -17 -28 -13 -19 2 -34 1 -34 -2 2 -19 -4 -29 -19 -33 -10 -3 -4 -5 13
-6 36 -1 199 81 208 105 3 8 45 33 93 55 142 65 216 102 255 127 38 24 56 22
90 -11 7 -7 36 -27 64 -45 27 -17 61 -43 74 -57 47 -50 86 -67 170 -72 76 -6
80 -7 94 -37 36 -71 29 -69 193 -64 166 6 189 13 272 78 71 56 131 72 131 35
0 -8 9 -13 21 -12 19 1 19 2 2 15 -17 13 -16 14 7 8 24 -7 24 -6 6 8 -37 30
-115 9 -182 -47 -52 -44 -81 -51 -134 -31 -46 17 -63 33 -135 119 -22 26 -50
57 -63 69 -12 12 -32 30 -45 42 -12 11 -68 70 -123 130 -258 278 -355 417
-418 600 -20 60 -41 117 -47 127 -5 10 -11 45 -14 78 -3 56 -2 60 16 56 10 -3
17 -1 13 4 -3 5 0 9 6 9 16 0 61 -51 57 -64 -4 -13 41 -38 54 -30 13 8 -19 51
-42 57 -11 3 -23 15 -26 26 -6 24 -32 34 -59 24 -17 -6 -17 -5 -6 10 12 14 9
16 -30 19 -28 2 -42 7 -40 16 1 6 -3 12 -9 12 -6 0 -9 10 -7 23 2 16 10 22 31
22 16 1 27 -4 27 -12 0 -7 7 -13 15 -13 8 0 15 -8 16 -17 0 -12 5 -7 14 12 10
22 10 32 2 37 -7 4 -10 8 -7 8 70 11 103 10 125 -4 19 -12 30 -14 52 -5 26 10
27 12 11 23 -23 17 -23 32 -1 40 15 6 14 8 -5 21 -24 17 -26 55 -2 55 8 0 26
-6 40 -13 39 -20 71 -27 63 -14 -4 7 -9 19 -10 27 -2 13 28 139 57 235 5 17
14 59 20 93 24 139 45 148 49 21 1 -50 5 -100 8 -112 2 -12 5 -47 5 -77 1 -30
7 -65 14 -79 7 -14 9 -28 5 -31 -5 -3 0 -24 11 -47 39 -83 60 -23 58 167 0 80
4 168 9 195 5 28 12 91 16 142 3 51 7 98 9 105 3 7 7 26 10 41 8 33 23 28 25
-8 5 -83 -3 -230 -14 -256 -3 -10 -2 -20 4 -23 10 -6 18 14 25 60 5 32 28 21
43 -21 8 -22 16 -85 18 -140 7 -141 15 -215 26 -215 5 0 9 17 10 38 1 41 7 83
14 90 2 3 10 -7 16 -22 7 -14 15 -26 19 -26 4 0 6 -11 5 -25 -2 -14 0 -25 4
-25 4 0 8 -15 9 -32 3 -43 21 -88 36 -88 6 0 -4 -14 -23 -30 -18 -17 -28 -30
-22 -30 7 0 9 -4 6 -10 -3 -5 -1 -10 5 -10 6 0 9 -4 6 -9 -7 -11 20 -34 32
-27 12 7 73 -50 64 -59 -4 -4 7 -3 23 1 17 4 32 11 33 16 2 4 12 8 23 8 10 0
19 4 19 9 0 5 10 11 23 15 20 5 23 12 23 43 -1 21 -5 41 -11 46 -6 4 -3 11 8
18 21 12 22 29 2 29 -17 0 -20 16 -5 25 6 4 8 11 4 16 -3 5 -1 15 4 22 6 7 9
42 7 79 -3 66 -2 67 18 53 11 -8 22 -27 24 -42 5 -49 6 -51 21 -45 11 4 13 2
7 -8 -5 -8 11 -2 36 12 24 15 43 32 41 38 -1 6 9 4 22 -5 17 -12 22 -22 18
-38 -3 -12 -1 -19 3 -15 5 4 14 3 20 -2 14 -12 48 -2 39 11 -3 5 2 9 11 9 10
0 13 -5 9 -12 -5 -7 -2 -9 9 -5 9 3 18 0 21 -9 3 -8 14 -14 23 -12 10 2 18 -2
18 -9 0 -15 5 -19 36 -26 22 -6 28 -2 38 21 l13 27 14 -25 c12 -23 11 -27 -9
-45 -12 -11 -21 -30 -21 -42 1 -13 -3 -23 -8 -23 -5 0 -6 -4 -3 -10 3 -5 1
-10 -4 -10 -6 0 -11 -7 -11 -15 0 -8 4 -15 9 -15 5 0 11 -10 13 -22 4 -25 28
-37 28 -14 0 9 7 19 16 23 11 4 12 8 4 13 -7 4 2 10 22 14 31 6 34 9 35 44 1
20 9 51 17 67 9 17 16 42 16 57 0 39 20 45 45 16 12 -14 31 -29 42 -32 23 -7
37 -46 23 -60 -6 -6 -10 -17 -10 -26 1 -9 5 -6 14 9 l13 24 18 -26 c9 -15 23
-27 30 -27 17 0 28 -34 20 -59 -3 -11 -2 -22 4 -25 14 -9 51 61 51 97 0 18 7
45 16 62 10 19 13 42 9 66 -4 24 -2 40 5 44 16 10 28 -11 36 -57 4 -21 11 -38
16 -38 6 0 8 9 5 20 -3 10 0 21 7 24 6 2 3 5 -6 5 -13 1 -18 15 -23 66 -4 36
-4 77 -1 93 4 15 15 68 25 119 14 73 27 105 64 165 77 123 69 116 112 95 31
-15 35 -20 25 -32 -9 -11 -10 -18 -1 -29 9 -11 5 -15 -19 -19 -16 -4 -30 -13
-30 -20 0 -8 -9 -25 -21 -38 -12 -13 -25 -35 -30 -48 -10 -26 -3 -61 12 -61
15 0 39 -26 32 -34 -4 -3 -2 -6 4 -6 14 0 29 20 36 48 3 13 1 22 -6 22 -8 0
-7 4 1 12 19 19 14 33 -6 15 -14 -12 -19 -13 -29 -2 -9 10 -8 18 4 35 12 18
17 19 25 9 7 -10 8 -8 5 8 -5 24 13 46 29 35 15 -11 35 -62 28 -74 -4 -6 0
-14 7 -19 11 -7 9 -9 -6 -9 -15 0 -17 -2 -6 -9 9 -6 10 -11 2 -15 -20 -13 -12
-25 15 -23 l26 2 2 -105 c3 -115 -3 -141 -39 -178 -14 -13 -22 -29 -18 -35 3
-5 1 -7 -4 -4 -6 4 -19 -5 -29 -20 -11 -14 -27 -34 -36 -44 -11 -11 -13 -21
-7 -25 6 -4 6 -11 -2 -20 -6 -8 -9 -17 -6 -20 2 -3 -1 -27 -8 -54 -7 -27 -10
-51 -7 -54 8 -9 22 -7 20 2 -4 12 34 92 44 92 4 0 8 6 8 14 0 19 30 44 30 25
1 -8 7 -3 14 10 l13 24 7 -27 c3 -14 11 -26 16 -26 6 0 10 -4 10 -10 0 -5 -6
-10 -14 -10 -11 0 -13 -7 -7 -27 4 -16 7 -45 5 -66 -3 -30 0 -37 9 -29 10 8
12 1 9 -30 -4 -34 0 -45 19 -60 16 -13 20 -21 12 -24 -9 -4 -9 -11 -3 -25 6
-10 14 -27 18 -37 10 -20 8 -117 -2 -158 -4 -16 -23 -43 -42 -62 -19 -18 -34
-37 -34 -43 0 -11 -13 -28 -52 -70 -16 -15 -28 -33 -28 -39 0 -5 -4 -10 -9
-10 -5 0 -35 -34 -66 -75 -54 -72 -89 -103 -110 -96 -5 1 -7 -1 -3 -5 8 -7
-53 -54 -70 -54 -16 0 -21 -27 -9 -40 9 -9 7 -11 -8 -10 -35 4 -45 0 -45 -16
0 -25 -33 -12 -37 15 -2 14 -8 30 -14 37 -7 8 -5 16 5 27 9 8 15 32 14 56 0
22 4 47 10 54 16 19 42 173 41 252 l0 40 -20 -38 c-11 -22 -18 -45 -15 -53 3
-8 1 -14 -4 -14 -6 0 -9 -3 -8 -7 3 -17 -16 -70 -39 -106 -13 -20 -20 -37 -16
-37 5 0 4 -4 -2 -8 -15 -11 -75 -101 -75 -113 0 -6 -11 -20 -25 -31 -13 -10
-30 -29 -37 -42 -7 -13 -32 -48 -56 -77 -23 -30 -52 -67 -65 -84 -12 -16 -50
-58 -84 -92 -35 -34 -63 -65 -63 -70 0 -20 -26 -63 -37 -63 -26 0 -11 -16 37
-38 27 -13 54 -20 60 -17 6 4 9 1 8 -5 -2 -7 13 -20 32 -31 33 -18 61 -19 542
-19 l508 0 0 1500 0 1500 -1500 0 -1500 0 0 -1376z m876 319 c2 -9 -1 -25 -7
-34 -5 -10 -12 -87 -15 -171 -3 -84 -9 -157 -14 -162 -5 -5 -22 -3 -41 4 -31
13 -31 14 -26 70 12 109 79 331 96 315 3 -3 6 -13 7 -22z m-239 -15 c4 -7 9
-20 11 -28 3 -17 12 -128 12 -150 0 -8 0 -32 0 -52 0 -43 -19 -52 -21 -10 -1
17 -3 21 -6 9 -3 -10 -10 -16 -16 -14 -15 5 -22 47 -8 47 6 0 11 11 11 25 0
28 -15 34 -24 9 -3 -8 -11 -12 -17 -8 -14 9 -7 131 10 162 13 24 36 29 48 10z
m826 -60 c9 -26 -5 -76 -24 -81 -10 -3 -18 -2 -17 2 1 3 -2 18 -6 34 -5 17 -4
33 4 42 15 18 36 19 43 3z m9 -107 c4 -1 5 -8 2 -16 -4 -8 -1 -15 5 -15 7 0 8
-8 1 -25 -5 -14 -7 -31 -4 -39 3 -8 1 -17 -5 -21 -8 -4 -6 -11 4 -21 13 -13
13 -19 0 -50 -8 -19 -10 -32 -5 -29 6 3 10 0 10 -7 0 -10 2 -10 9 1 5 7 15 11
22 8 9 -3 2 -10 -18 -19 -24 -10 -30 -17 -22 -25 18 -18 2 -45 -23 -41 -19 2
-26 15 -41 68 -9 36 -16 83 -15 105 l3 40 22 -45 c12 -25 22 -39 23 -32 0 7
-4 21 -9 30 -13 24 -21 112 -10 112 5 0 9 6 9 14 0 8 8 13 18 11 9 -2 20 -4
24 -4z m447 -25 c10 -12 6 -15 -19 -21 -39 -9 -51 2 -26 21 25 18 31 18 45 0z
m-384 -56 c3 -5 1 -10 -4 -10 -6 0 -11 5 -11 10 0 6 2 10 4 10 3 0 8 -4 11
-10z m20 -49 c-1 -9 2 -21 7 -27 12 -16 -18 -26 -31 -10 -6 6 -8 21 -5 32 6
24 33 28 29 5z m-882 -18 c3 -5 8 -29 11 -54 l6 -46 -45 10 c-24 6 -42 14 -39
18 2 4 -1 11 -7 15 -8 5 -1 17 22 35 36 30 45 34 52 22z m1640 -64 c4 -16 3
-18 -9 -8 -16 13 -19 29 -5 29 5 0 11 -9 14 -21z m450 -16 c-7 -2 -19 -2 -25
0 -7 3 -2 5 12 5 14 0 19 -2 13 -5z m-2075 -35 c19 -10 25 -9 34 2 8 12 9 11
4 -3 -3 -10 -6 -22 -6 -27 0 -11 -74 0 -78 12 -2 4 -10 8 -17 8 -8 0 -16 4
-19 8 -8 14 56 13 82 0z m805 -65 c-7 -2 -19 -2 -25 0 -7 3 -2 5 12 5 14 0 19
-2 13 -5z m57 -43 c-26 -21 -70 -27 -70 -10 0 5 7 7 15 3 10 -3 15 -1 13 7 -4
18 44 42 57 29 7 -7 2 -16 -15 -29z m717 -807 c-9 -9 -20 -13 -24 -9 -4 4 1
14 11 22 25 18 35 8 13 -13z m-27 -47 c0 -2 -7 -6 -15 -10 -8 -3 -15 -1 -15 4
0 6 7 10 15 10 8 0 15 -2 15 -4z m13 -37 c4 -16 3 -18 -8 -9 -8 7 -19 9 -25 5
-5 -3 -10 -2 -10 4 0 8 15 18 31 20 4 1 9 -8 12 -20z m-13 -33 c0 -2 -7 -6
-15 -10 -8 -3 -15 -1 -15 4 0 6 7 10 15 10 8 0 15 -2 15 -4z m270 -55 c0 -5
-22 -20 -49 -34 -27 -15 -51 -34 -55 -42 -3 -8 -14 -15 -24 -15 -15 0 -9 10
26 46 25 25 52 49 61 54 16 8 41 3 41 -9z m-380 -1 c0 -5 -4 -10 -10 -10 -5 0
-10 5 -10 10 0 6 5 10 10 10 6 0 10 -4 10 -10z m3 -36 c-3 -8 -12 -13 -20 -10
-9 4 -11 1 -7 -5 4 -7 1 -10 -6 -7 -21 7 -23 26 -3 31 35 9 42 7 36 -9z m431
-74 c18 -6 25 -16 23 -29 -4 -28 -13 -35 -45 -37 -60 -3 -68 -5 -86 -19 -19
-14 -19 -15 -1 -35 14 -16 15 -20 4 -20 -21 0 -39 20 -39 42 0 27 30 68 65 89
34 22 44 23 79 9z m-59 -91 c4 -6 14 -8 22 -5 8 3 11 1 8 -4 -3 -6 -1 -10 6
-10 9 0 10 -3 3 -10 -14 -14 -68 3 -72 23 -4 19 23 24 33 6z m-465 -19 c0 -5
-11 -17 -25 -26 -14 -9 -25 -22 -25 -29 0 -19 -65 -65 -92 -65 -13 0 -31 7
-41 14 -16 13 -16 15 4 40 11 14 27 26 35 26 22 0 94 31 90 39 -3 4 9 8 25 9
16 1 29 -2 29 -8z m895 -60 c16 0 26 -25 19 -45 -5 -11 -24 -15 -80 -15 l-74
0 0 30 c0 27 3 30 30 30 17 0 30 -5 30 -12 0 -9 4 -8 10 2 8 12 10 8 11 -15 2
-26 2 -27 6 -6 5 27 26 54 31 40 2 -5 10 -9 17 -9z m-145 -30 c0 -32 -26 -43
-36 -15 -9 21 3 45 21 45 10 0 15 -10 15 -30z"/>
<path d="M2520 259 c0 -5 5 -7 10 -4 6 3 10 8 10 11 0 2 -4 4 -10 4 -5 0 -10
-5 -10 -11z"/>
<path d="M2912 105 c0 -16 2 -22 5 -12 2 9 2 23 0 30 -3 6 -5 -1 -5 -18z"/>
<path d="M2815 100 c-3 -5 -1 -10 4 -10 6 0 11 5 11 10 0 6 -2 10 -4 10 -3 0
-8 -4 -11 -10z"/>
<path d="M1151 1883 c1 -10 -2 -45 -5 -78 -7 -76 9 -42 18 38 4 34 2 57 -3 57
-5 0 -10 -8 -10 -17z"/>
<path d="M2561 1858 c-1 -10 -5 -18 -10 -18 -11 0 -9 -95 1 -106 4 -3 3 -17
-2 -30 -6 -15 -6 -24 0 -24 5 0 14 -9 20 -21 9 -17 8 -23 -7 -35 -10 -7 -14
-14 -9 -14 5 0 3 -7 -4 -15 -10 -12 -10 -15 4 -15 9 0 16 5 16 12 0 6 8 20 17
30 15 17 15 21 3 29 -13 8 -11 13 11 32 19 16 25 30 23 55 -1 25 2 32 17 32
24 0 24 5 -3 43 -27 39 -39 48 -55 42 -6 -2 -14 1 -17 8 -2 7 -5 4 -5 -5z"/>
<path d="M2740 1780 c0 -5 5 -10 11 -10 5 0 7 5 4 10 -3 6 -8 10 -11 10 -2 0
-4 -4 -4 -10z"/>
<path d="M1130 1720 c0 -5 5 -10 10 -10 6 0 10 5 10 10 0 6 -4 10 -10 10 -5 0
-10 -4 -10 -10z"/>
<path d="M2537 1663 c-4 -3 -7 -11 -7 -17 0 -6 5 -5 12 2 6 6 9 14 7 17 -3 3
-9 2 -12 -2z"/>
<path d="M2620 1589 c0 -5 5 -7 10 -4 6 3 10 8 10 11 0 2 -4 4 -10 4 -5 0 -10
-5 -10 -11z"/>
<path d="M2490 1553 c0 -7 -8 -13 -17 -14 -13 0 -11 -3 7 -11 15 -6 20 -12 13
-15 -7 -3 -13 -9 -13 -15 0 -7 5 -6 14 1 7 6 34 10 60 8 25 -3 46 -2 46 2 0 3
3 16 6 27 6 21 4 21 -47 12 -40 -7 -54 -6 -60 4 -7 10 -9 10 -9 1z"/>
<path d="M1991 1394 c0 -11 3 -14 6 -6 3 7 2 16 -1 19 -3 4 -6 -2 -5 -13z"/>
<path d="M626 1347 c-16 -12 -16 -14 8 -25 14 -6 26 -19 26 -27 0 -9 4 -13 10
-10 5 3 7 0 4 -8 -3 -8 3 -17 13 -20 10 -4 28 -14 40 -22 20 -16 21 -15 16 4
-3 12 -10 24 -16 28 -6 4 -7 1 -2 -7 5 -9 4 -11 -4 -6 -6 4 -9 12 -6 17 4 5
-11 27 -33 49 -34 35 -41 38 -56 27z"/>
<path d="M2006 1335 c-14 -13 -26 -29 -26 -35 0 -6 -6 -10 -12 -9 -7 1 -26 -4
-41 -11 -24 -12 -28 -19 -26 -50 2 -19 -1 -41 -5 -48 -14 -23 2 -45 28 -38 16
4 30 0 42 -11 17 -17 18 -17 11 0 -4 10 -7 25 -7 33 0 11 -7 13 -26 8 -24 -6
-26 -5 -19 17 10 34 17 38 43 28 13 -5 22 -17 22 -29 0 -11 5 -20 11 -20 5 0
7 -4 4 -10 -3 -5 -2 -10 3 -10 5 0 10 -24 11 -52 1 -29 2 -71 3 -93 2 -38 1
-39 -30 -41 -38 -2 -49 -9 -27 -17 8 -4 15 -2 15 3 0 6 5 10 10 10 17 0 11
-17 -7 -25 -12 -4 -24 1 -36 16 l-18 22 -20 -21 c-22 -25 -38 -30 -19 -7 10
12 10 15 -4 15 -9 0 -16 -8 -16 -19 0 -10 -9 -21 -20 -24 -23 -6 -28 -37 -6
-37 29 0 25 -28 -7 -41 -18 -7 -34 -15 -37 -18 -3 -3 -27 -17 -54 -31 -27 -13
-54 -30 -61 -36 -18 -18 -97 -32 -127 -22 -19 7 -30 21 -40 51 -9 28 -18 41
-28 38 -8 -2 -29 -6 -47 -9 -37 -5 -55 -38 -31 -56 7 -6 19 -28 25 -48 l11
-38 -36 -9 c-188 -49 -297 -60 -365 -37 -58 19 -57 19 -57 2 0 -8 10 -16 23
-20 35 -8 131 -102 124 -121 -4 -9 -1 -15 9 -15 8 0 26 -11 40 -25 18 -18 23
-31 18 -50 -5 -19 -2 -25 11 -25 20 0 75 -49 75 -67 0 -7 7 -13 15 -13 8 0 15
-5 15 -12 0 -7 12 -23 28 -36 17 -15 20 -22 10 -18 -10 3 -18 1 -18 -3 0 -16
24 -18 38 -4 7 7 25 13 40 14 l27 0 -25 12 c-23 11 -20 12 34 15 32 2 63 -1
69 -7 6 -6 26 -4 56 5 55 17 64 17 56 4 -3 -5 -1 -10 5 -10 7 0 10 -6 7 -14
-3 -8 5 -18 19 -25 32 -14 39 -14 27 2 -6 6 -8 31 -5 53 7 75 84 87 116 19 10
-20 22 -33 28 -29 7 4 6 9 -1 14 -8 4 -9 14 -3 31 5 13 8 41 5 61 -4 40 0 43
54 38 18 -1 24 7 34 42 7 24 17 49 22 56 7 9 3 20 -13 37 l-23 24 25 58 c32
71 35 83 43 155 5 49 3 60 -15 78 -25 25 -25 25 0 50 24 24 40 26 40 5 0 -8 4
-15 9 -15 17 0 34 -60 24 -83 -15 -35 -2 -70 27 -71 24 -1 25 2 28 65 2 36 -4
96 -13 134 -12 55 -13 79 -4 124 13 69 17 161 7 167 -5 3 -8 12 -8 21 0 8 -9
27 -21 41 -13 17 -18 34 -14 49 7 29 4 29 -29 -2z m-96 -457 c0 -4 -9 -8 -20
-8 -21 0 -24 8 -13 36 6 16 7 16 20 -2 7 -10 13 -21 13 -26z m-128 -157 c-1
-7 2 -19 7 -25 14 -17 -8 -84 -30 -91 -9 -3 -27 -8 -40 -10 -12 -3 -32 -14
-44 -25 -11 -11 -34 -22 -50 -26 -26 -5 -32 -1 -45 23 -23 41 -19 67 9 71 15
2 21 0 17 -7 -4 -6 -2 -11 4 -11 6 0 10 8 8 18 -1 9 1 23 6 30 6 10 12 8 27
-9 10 -12 16 -26 13 -30 -3 -5 4 -9 15 -9 12 0 20 3 19 8 -4 16 15 78 30 95
18 20 59 19 54 -2z m-256 -106 c3 -14 11 -25 18 -25 7 0 12 -13 11 -30 0 -27
-5 -32 -40 -41 -27 -8 -49 -8 -67 -1 -20 7 -30 6 -42 -6 -15 -15 -21 -15 -76
-1 -40 11 -61 12 -63 5 -5 -16 -77 36 -74 54 3 23 18 30 67 30 25 0 63 5 85
11 37 11 118 25 157 28 11 1 20 -9 24 -24z m-179 -184 c24 -49 123 -78 174
-50 15 7 24 7 34 -1 7 -6 17 -10 21 -9 5 1 17 1 27 0 22 -1 19 -36 -3 -36 -8
0 -21 -8 -28 -18 -11 -15 -26 -18 -80 -16 -87 3 -117 12 -151 46 -33 34 -61
78 -61 96 0 24 53 14 67 -12z"/>
<path d="M1530 1328 c-12 -22 -12 -22 6 -6 10 10 15 20 12 24 -4 3 -12 -5 -18
-18z"/>
<path d="M2587 1333 c-12 -11 -8 -23 8 -23 8 0 15 7 15 15 0 16 -12 20 -23 8z"/>
<path d="M2539 1290 c-18 -14 -35 -18 -69 -14 -39 4 -42 3 -22 -7 26 -14 28
-25 6 -33 -13 -5 -14 -9 -4 -21 6 -8 9 -19 5 -25 -3 -5 0 -10 7 -10 7 0 2 -9
-12 -20 l-25 -19 25 6 25 6 -20 -21 c-17 -17 -22 -18 -31 -6 -10 12 -13 12
-25 -2 -11 -14 -10 -15 6 -12 10 1 20 -3 22 -10 3 -6 -1 -10 -9 -9 -7 2 -10 2
-5 0 4 -3 7 -9 7 -14 0 -6 -4 -7 -10 -4 -5 3 -18 1 -27 -4 -10 -6 -13 -11 -8
-11 6 -1 17 -3 26 -5 10 -2 22 8 30 21 9 18 19 23 37 19 37 -6 51 15 48 73 -2
44 1 55 23 76 14 14 31 31 38 39 19 24 -9 28 -38 7z m-62 -66 c-3 -3 -12 -4
-19 -1 -8 3 -5 6 6 6 11 1 17 -2 13 -5z"/>
<path d="M1550 1258 c-23 -11 -24 -12 -4 -15 11 -2 33 3 50 12 29 15 29 15 4
14 -14 0 -36 -5 -50 -11z"/>
<path d="M2690 1245 c10 -12 10 -15 -4 -15 -21 0 -20 -19 2 -37 9 -8 11 -12 5
-8 -21 10 -15 -6 11 -30 l24 -22 -1 45 c-1 30 -7 52 -19 64 -22 22 -35 24 -18
3z"/>
<path d="M760 1229 c0 -5 5 -7 10 -4 6 3 10 8 10 11 0 2 -4 4 -10 4 -5 0 -10
-5 -10 -11z"/>
<path d="M1720 1212 c0 -18 5 -32 11 -32 6 0 9 -9 6 -20 -3 -11 -1 -20 5 -20
6 0 7 16 3 43 -9 53 -25 72 -25 29z"/>
<path d="M1849 1233 c-2 -7 -15 -14 -29 -16 -34 -5 -40 -37 -7 -37 20 0 24 -4
20 -20 -3 -12 0 -20 6 -20 7 0 9 -4 6 -10 -3 -5 -1 -10 4 -10 15 0 14 67 -1
73 -10 4 -10 8 1 15 7 5 11 16 9 23 -3 10 -6 11 -9 2z"/>
<path d="M1638 1213 c7 -3 16 -2 19 1 4 3 -2 6 -13 5 -11 0 -14 -3 -6 -6z"/>
<path d="M1737 1088 c6 -55 6 -52 3 -58 -8 -21 -8 -50 0 -55 6 -3 10 -20 10
-37 0 -17 3 -28 7 -25 7 8 6 151 -3 190 -9 43 -23 32 -17 -15z"/>
<path d="M1193 1085 c0 -22 2 -30 4 -17 2 12 2 30 0 40 -3 9 -5 -1 -4 -23z"/>
<path d="M1865 1110 c-3 -5 -2 -10 4 -10 5 0 13 5 16 10 3 6 2 10 -4 10 -5 0
-13 -4 -16 -10z"/>
<path d="M1920 1110 c0 -5 5 -10 10 -10 6 0 10 5 10 10 0 6 -4 10 -10 10 -5 0
-10 -4 -10 -10z"/>
<path d="M1965 1097 c-5 -7 -11 -23 -13 -37 -1 -13 -7 -27 -13 -31 -16 -10 -6
-53 13 -57 15 -3 17 2 12 25 -3 15 2 47 10 71 15 41 11 53 -9 29z"/>
<path d="M888 1033 c7 -3 16 -2 19 1 4 3 -2 6 -13 5 -11 0 -14 -3 -6 -6z"/>
<path d="M2385 1020 c-3 -5 -1 -10 4 -10 6 0 11 5 11 10 0 6 -2 10 -4 10 -3 0
-8 -4 -11 -10z"/>
<path d="M1182 985 c0 -16 2 -22 5 -12 2 9 2 23 0 30 -3 6 -5 -1 -5 -18z"/>
<path d="M1170 915 c0 -8 2 -15 4 -15 2 0 6 7 10 15 3 8 1 15 -4 15 -6 0 -10
-7 -10 -15z"/>
<path d="M1118 903 c10 -4 8 -8 -5 -18 -10 -7 -15 -16 -12 -19 3 -3 16 5 29
19 l23 25 -24 -1 c-13 0 -18 -3 -11 -6z"/>
<path d="M1190 775 c0 -4 14 -18 30 -32 28 -23 43 -52 20 -38 -5 3 -10 1 -10
-4 0 -6 14 -11 30 -11 17 0 30 2 30 5 0 7 -67 66 -86 78 -8 4 -14 5 -14 2z"/>
<path d="M1008 653 c7 -3 16 -2 19 1 4 3 -2 6 -13 5 -11 0 -14 -3 -6 -6z"/>
<path d="M1460 228 c0 -4 24 -7 53 -7 54 1 49 5 -15 11 -21 2 -38 0 -38 -4z"/>
<path d="M1768 63 c7 -3 16 -2 19 1 4 3 -2 6 -13 5 -11 0 -14 -3 -6 -6z"/>
<path d="M626 41 c-4 -5 -2 -12 4 -16 6 -4 8 -11 5 -16 -4 -5 5 -9 19 -9 36 0
39 14 6 33 -16 10 -31 13 -34 8z"/>
</g>
</svg>
